<svg width="34" height="34" viewBox="0 0 34 34" fill="none" xmlns="http://www.w3.org/2000/svg">
<path d="M24.9874 28.8322C23.4438 30.3587 21.7408 30.1208 20.1175 29.401C18.3917 28.6668 16.814 28.6203 14.9913 29.401C12.7216 30.3994 11.5169 30.1091 10.15 28.8322C2.43225 20.735 3.5714 8.40063 12.3428 7.93628C14.4702 8.05237 15.9596 9.13489 17.2127 9.22486C19.0752 8.83886 20.8579 7.73312 22.8515 7.87823C25.2465 8.07558 27.0378 9.03912 28.2339 10.7717C23.3071 13.79 24.4747 20.4071 29 22.2645C28.0944 24.6878 26.9324 27.0821 24.9845 28.8525L24.9874 28.8322ZM17.0418 7.84921C16.8111 4.25047 19.6732 1.29022 22.9654 1C23.4182 5.15016 19.2631 8.25552 17.0418 7.84921Z" fill="black"/>
</svg>
