<svg width="34" height="34" viewBox="0 0 34 34" fill="none" xmlns="http://www.w3.org/2000/svg">
<path d="M30 16.7994C30 15.6894 29.9115 14.8794 29.72 14.0394H17.2648V19.0493H24.5757C24.4284 20.2944 23.6324 22.1693 21.8636 23.4293L21.8388 23.597L25.7769 26.7016L26.0497 26.7293C28.5554 24.3743 30 20.9093 30 16.7994Z" fill="#486FF7"/>
<path d="M17.2668 30C20.8486 30 23.8555 28.7999 26.0518 26.73L21.8656 23.4299C20.7454 24.2249 19.2419 24.7799 17.2668 24.7799C13.7587 24.7799 10.7813 22.4249 9.71993 19.1699L9.56435 19.1834L5.46945 22.4084L5.4159 22.5599C7.59738 26.9699 12.0783 30 17.2668 30Z" fill="#21B656"/>
<path d="M9.71993 19.1699C9.43988 18.33 9.27685 17.4299 9.27685 16.5C9.27685 15.5699 9.43892 14.67 9.70424 13.83L9.69682 13.6511L5.55064 10.3743L5.41498 10.44C4.5159 12.27 4 14.325 4 16.5C4 18.675 4.51682 20.7299 5.4159 22.5599L9.71993 19.1699Z" fill="#EEB307"/>
<path d="M17.2667 8.21991C19.7577 8.21991 21.438 9.3149 22.3961 10.23L26.14 6.50997C23.8407 4.33499 20.8484 3 17.2667 3C12.0783 3 7.59645 6.03007 5.41498 10.44L9.70424 13.83C10.7803 10.575 13.7587 8.21991 17.2667 8.21991Z" fill="#FF6702"/>
</svg>
